<svg 
 xmlns="http://www.w3.org/2000/svg"
 xmlns:xlink="http://www.w3.org/1999/xlink"
 width="32px" height="32px">
<path fill-rule="evenodd"  fill="rgb(255, 255, 255)"
 d="M32.000,29.907 C32.000,31.058 31.058,32.000 29.907,32.000 L2.093,32.000 C0.942,32.000 -0.000,31.058 -0.000,29.907 L-0.000,2.093 C-0.000,0.942 0.942,-0.000 2.093,-0.000 L29.907,-0.000 C31.058,-0.000 32.000,0.942 32.000,2.093 L32.000,29.907 ZM18.714,8.725 L22.330,8.725 L22.330,4.244 L18.714,4.244 C15.721,4.244 13.287,6.881 13.287,10.123 L13.287,12.383 L9.670,12.383 L9.670,16.877 L13.287,16.877 L13.287,27.755 L17.808,27.755 L17.808,16.877 L22.330,16.877 L22.330,12.383 L17.808,12.383 L17.808,10.081 C17.808,9.303 18.288,8.725 18.714,8.725 Z"/>
</svg>