<svg 
 xmlns="http://www.w3.org/2000/svg"
 xmlns:xlink="http://www.w3.org/1999/xlink"
 width="32px" height="32px">
<path fill-rule="evenodd"  fill="rgb(255, 255, 255)"
 d="M31.999,2.306 L31.999,29.690 C31.999,30.965 30.934,31.999 29.629,31.999 L2.362,31.999 C1.059,31.999 0.000,30.965 0.000,29.690 L0.000,2.306 C0.000,1.034 1.059,0.000 2.362,0.000 L29.629,0.000 C30.934,0.000 31.999,1.034 31.999,2.306 ZM15.935,6.565 C10.728,6.565 6.491,10.802 6.491,16.009 C6.491,21.217 10.728,25.453 15.935,25.453 C21.143,25.453 25.379,21.217 25.379,16.009 C25.379,10.802 21.143,6.565 15.935,6.565 ZM15.935,22.313 C12.459,22.313 9.632,19.485 9.632,16.009 C9.632,12.534 12.459,9.705 15.935,9.705 C19.411,9.705 22.238,12.534 22.238,16.009 C22.238,19.485 19.411,22.313 15.935,22.313 ZM26.313,3.616 C25.200,3.616 24.298,4.518 24.298,5.631 C24.298,6.744 25.200,7.646 26.313,7.646 C27.426,7.646 28.328,6.744 28.328,5.631 C28.328,4.518 27.426,3.616 26.313,3.616 Z"/>
</svg>