<svg 
 xmlns="http://www.w3.org/2000/svg"
 xmlns:xlink="http://www.w3.org/1999/xlink"
 width="32px" height="32px">
<path fill-rule="evenodd"  fill="rgb(255, 255, 255)"
 d="M29.629,0.000 L2.362,0.000 C1.059,0.000 0.000,1.034 0.000,2.306 L0.000,29.690 C0.000,30.965 1.059,31.999 2.362,31.999 L29.629,31.999 C30.934,31.999 31.999,30.965 31.999,29.690 L31.999,2.306 C31.999,1.034 30.934,0.000 29.629,0.000 ZM4.742,11.998 L9.490,11.998 L9.490,27.268 L4.742,27.268 L4.742,11.998 ZM7.117,4.406 C8.634,4.406 9.867,5.639 9.867,7.157 C9.867,8.677 8.634,9.910 7.117,9.910 C5.595,9.910 4.366,8.677 4.366,7.157 C4.366,5.639 5.595,4.406 7.117,4.406 M12.467,11.998 L17.020,11.998 L17.020,14.083 L17.085,14.083 C17.719,12.883 19.267,11.617 21.576,11.617 C26.379,11.617 27.266,14.779 27.266,18.892 L27.266,27.268 L22.525,27.268 L22.525,19.842 C22.525,18.070 22.491,15.793 20.058,15.793 C17.589,15.793 17.212,17.722 17.212,19.714 L17.212,27.268 L12.467,27.268 L12.467,11.998 Z"/>
</svg>