<svg id="87dd2f5b-c8af-4fce-a3bc-d5f5140644c6" data-name="Layer 1" xmlns="http://www.w3.org/2000/svg" viewBox="0 0 24 24"><title>linkedin-2</title><path d="M22.22,0H1.77A1.75,1.75,0,0,0,0,1.73V22.27A1.75,1.75,0,0,0,1.77,24H22.22A1.76,1.76,0,0,0,24,22.27V1.73A1.75,1.75,0,0,0,22.22,0Z" fill="#4b2e83"/><path d="M3.56,9H7.12V20.45H3.56ZM5.34,3.3A2.07,2.07,0,1,1,3.27,5.37,2.07,2.07,0,0,1,5.34,3.3" fill="#fff"/><path d="M9.35,9h3.41v1.56h.05a3.75,3.75,0,0,1,3.37-1.85c3.61,0,4.27,2.37,4.27,5.46v6.28H16.89V14.88c0-1.33,0-3-1.85-3s-2.13,1.45-2.13,2.95v5.66H9.35Z" fill="#fff"/></svg>