<svg id="dae5a79c-ab31-4ef7-95b6-d1af7097fdcb" data-name="Layer 1" xmlns="http://www.w3.org/2000/svg" viewBox="0 0 269.95 79.09"><defs><style>.ffef8190-c236-4bfb-8d6a-6374e8f868d7{fill:#fff;}</style></defs><title>mobile-logo</title><path class="ffef8190-c236-4bfb-8d6a-6374e8f868d7" d="M9.29,2.1H.41v-2H20.57v2H11.69v23H9.29Z" transform="translate(-0.41 -0.07)"/><path class="ffef8190-c236-4bfb-8d6a-6374e8f868d7" d="M25.95.07h2.36V11.21H43.94V.07h2.36v25H43.94V13.24H28.31V25.06H25.95Z" transform="translate(-0.41 -0.07)"/><path class="ffef8190-c236-4bfb-8d6a-6374e8f868d7" d="M54,.07H70.17v2H56.4v9.22H69.46v2.06H56.4V23H70.48v2H54Z" transform="translate(-0.41 -0.07)"/><path class="ffef8190-c236-4bfb-8d6a-6374e8f868d7" d="M3.64,35.75h8.57V53.29H34.49V35.75h8.57V78.59H34.49V59.89H12.21v18.7H3.64Z" transform="translate(-0.41 -0.07)"/><path class="ffef8190-c236-4bfb-8d6a-6374e8f868d7" d="M73.85,79.17a33,33,0,0,1-9.15-1.1,14.47,14.47,0,0,1-6.11-3.36A13,13,0,0,1,55.21,69a28.76,28.76,0,0,1-1-8.22V35.7h8.57V61q0,5.85,2.72,8.57t8.39,2.72q5.61,0,8.34-2.72T84.9,61V35.7h8.57V60.76a28.78,28.78,0,0,1-1,8.22A13,13,0,0,1,89,74.71,14.47,14.47,0,0,1,83,78.07,32.67,32.67,0,0,1,73.85,79.17Z" transform="translate(-0.41 -0.07)"/><path class="ffef8190-c236-4bfb-8d6a-6374e8f868d7" d="M117.45,79.11q-2,0-3.91-.06t-3.65-.14q-1.71-.09-3.1-.26t-2.26-.35V35.81q4.17-.29,8.16-.43t6.6-.14q12.62,0,18.49,5.3t5.87,16.64a29.39,29.39,0,0,1-1.51,10A15.73,15.73,0,0,1,137.5,74a19.88,19.88,0,0,1-8.13,3.91A49.75,49.75,0,0,1,117.45,79.11Zm3.18-6.83a22.36,22.36,0,0,0,6.54-.84,10.28,10.28,0,0,0,4.46-2.63,10.55,10.55,0,0,0,2.52-4.66,26.82,26.82,0,0,0,.78-7,25.44,25.44,0,0,0-.81-6.86,11,11,0,0,0-2.55-4.69A10.14,10.14,0,0,0,127.09,43a22.92,22.92,0,0,0-6.63-.84q-1.39,0-3.36.09t-4,.26V71.76q1.91.29,3.7.41T120.63,72.28Z" transform="translate(-0.41 -0.07)"/><path class="ffef8190-c236-4bfb-8d6a-6374e8f868d7" d="M166,79.11q-2,0-3.91-.06t-3.65-.14q-1.71-.09-3.1-.26t-2.26-.35V35.81q4.17-.29,8.16-.43t6.6-.14q12.62,0,18.49,5.3t5.87,16.64a29.39,29.39,0,0,1-1.51,10A15.73,15.73,0,0,1,186.1,74,19.88,19.88,0,0,1,178,77.86,49.75,49.75,0,0,1,166,79.11Zm3.18-6.83a22.36,22.36,0,0,0,6.54-.84,10.28,10.28,0,0,0,4.46-2.63,10.55,10.55,0,0,0,2.52-4.66,26.82,26.82,0,0,0,.78-7,25.44,25.44,0,0,0-.81-6.86,11,11,0,0,0-2.55-4.69A10.14,10.14,0,0,0,175.68,43a22.92,22.92,0,0,0-6.63-.84q-1.39,0-3.36.09t-4,.26V71.76q1.91.29,3.7.41T169.23,72.28Z" transform="translate(-0.41 -0.07)"/><path class="ffef8190-c236-4bfb-8d6a-6374e8f868d7" d="M201.74,35.75h8.57V72h20.43v6.6h-29Z" transform="translate(-0.41 -0.07)"/><path class="ffef8190-c236-4bfb-8d6a-6374e8f868d7" d="M238.41,35.75h31.43v6.66H247V53.64H268.1V60.3H247V71.93h23.38v6.66h-32Z" transform="translate(-0.41 -0.07)"/></svg>