<svg id="b1136051-eb3c-4e02-9292-610c3fc75929" data-name="Layer 1" xmlns="http://www.w3.org/2000/svg" viewBox="0 0 121.12 35.36"><title>thehuddle-purple</title><path d="M43.65,33.55h-4v-.91h9v.91h-4V43.81H43.65Z" transform="translate(-39.68 -32.64)" fill="#4b2e83"/><path d="M51.1,32.64h1.06v5h7v-5H60.2V43.81H59.14V38.53h-7v5.28H51.1Z" transform="translate(-39.68 -32.64)" fill="#4b2e83"/><path d="M63.65,32.64h7.21v.91H64.71v4.12h5.84v.92H64.71v4.32H71v.91H63.65Z" transform="translate(-39.68 -32.64)" fill="#4b2e83"/><path d="M41.57,48.59H45.4v7.84h10V48.59h3.83V67.74H55.36V59.38h-10v8.36H41.57Z" transform="translate(-39.68 -32.64)" fill="#4b2e83"/><path d="M73,68a14.74,14.74,0,0,1-4.09-.49A6.47,6.47,0,0,1,66.14,66a5.79,5.79,0,0,1-1.51-2.56,12.85,12.85,0,0,1-.47-3.67V48.57H68V59.88a5.23,5.23,0,0,0,1.22,3.83A5.11,5.11,0,0,0,73,64.92a5.07,5.07,0,0,0,3.73-1.22,5.23,5.23,0,0,0,1.22-3.83V48.57h3.83v11.2a12.86,12.86,0,0,1-.47,3.67A5.79,5.79,0,0,1,79.75,66,6.47,6.47,0,0,1,77,67.51,14.6,14.6,0,0,1,73,68Z" transform="translate(-39.68 -32.64)" fill="#4b2e83"/><path d="M92.44,68l-1.75,0-1.63-.06q-.76,0-1.38-.12t-1-.16v-19q1.86-.13,3.65-.19t2.95-.06q5.64,0,8.27,2.37t2.63,7.44a13.14,13.14,0,0,1-.67,4.45,7,7,0,0,1-2.08,3.05,8.89,8.89,0,0,1-3.64,1.75A22.24,22.24,0,0,1,92.44,68Zm1.42-3.05a10,10,0,0,0,2.92-.37,4.6,4.6,0,0,0,2-1.18,4.71,4.71,0,0,0,1.13-2.08,12,12,0,0,0,.35-3.12,11.37,11.37,0,0,0-.36-3.07A4.92,4.92,0,0,0,98.76,53a4.53,4.53,0,0,0-2-1.19,10.25,10.25,0,0,0-3-.38q-.62,0-1.5,0t-1.79.12V64.69q.85.13,1.66.18T93.87,64.92Z" transform="translate(-39.68 -32.64)" fill="#4b2e83"/><path d="M114.17,68l-1.75,0-1.63-.06q-.76,0-1.38-.12t-1-.16v-19q1.86-.13,3.65-.19t2.95-.06q5.64,0,8.27,2.37t2.63,7.44a13.14,13.14,0,0,1-.67,4.45,7,7,0,0,1-2.08,3.05,8.89,8.89,0,0,1-3.64,1.75A22.24,22.24,0,0,1,114.17,68Zm1.42-3.05a10,10,0,0,0,2.92-.37,4.6,4.6,0,0,0,2-1.18,4.71,4.71,0,0,0,1.13-2.08,12,12,0,0,0,.35-3.12,11.37,11.37,0,0,0-.36-3.07,4.92,4.92,0,0,0-1.14-2.1,4.53,4.53,0,0,0-2-1.19,10.25,10.25,0,0,0-3-.38q-.62,0-1.5,0t-1.79.12V64.69q.85.13,1.66.18T115.59,64.92Z" transform="translate(-39.68 -32.64)" fill="#4b2e83"/><path d="M130.12,48.59H134v16.2h9.13v2.95h-13Z" transform="translate(-39.68 -32.64)" fill="#4b2e83"/><path d="M146.51,48.59h14v3H150.34v5h9.44v3h-9.44v5.2H160.8v3H146.51Z" transform="translate(-39.68 -32.64)" fill="#4b2e83"/></svg>