<svg 
 xmlns="http://www.w3.org/2000/svg"
 xmlns:xlink="http://www.w3.org/1999/xlink"
 width="32px" height="32px">
<path fill-rule="evenodd"  fill="rgb(255, 255, 255)"
 d="M32.000,29.907 C32.000,31.058 31.058,32.000 29.907,32.000 L2.093,32.000 C0.942,32.000 0.000,31.058 0.000,29.907 L0.000,2.093 C0.000,0.942 0.942,-0.000 2.093,-0.000 L29.907,-0.000 C31.058,-0.000 32.000,0.942 32.000,2.093 L32.000,29.907 ZM27.592,8.810 C26.740,9.188 25.824,9.443 24.862,9.559 C25.843,8.970 26.597,8.037 26.952,6.927 C26.033,7.472 25.017,7.869 23.932,8.081 C23.065,7.158 21.827,6.580 20.460,6.580 C17.834,6.580 15.703,8.707 15.703,11.336 C15.703,11.708 15.745,12.071 15.827,12.420 C11.875,12.221 8.372,10.328 6.024,7.450 C5.616,8.152 5.381,8.968 5.381,9.840 C5.381,11.490 6.219,12.947 7.496,13.800 C6.717,13.776 5.984,13.562 5.342,13.203 C5.342,13.226 5.342,13.245 5.342,13.264 C5.342,15.570 6.983,17.492 9.157,17.928 C8.759,18.037 8.338,18.096 7.902,18.096 C7.598,18.096 7.300,18.066 7.009,18.010 C7.612,19.899 9.370,21.274 11.452,21.314 C9.825,22.588 7.774,23.349 5.544,23.349 C5.160,23.349 4.782,23.326 4.408,23.282 C6.517,24.633 9.016,25.420 11.703,25.420 C20.450,25.420 25.234,18.171 25.234,11.887 C25.234,11.680 25.230,11.474 25.222,11.271 C26.149,10.600 26.957,9.763 27.592,8.810 Z"/>
</svg>