<svg id="ffbfed75-9d1b-4f2a-a96c-e9d83905a23b" data-name="Layer 1" xmlns="http://www.w3.org/2000/svg" viewBox="0 0 24 24"><title>twitter-2</title><path d="M24.19,22.49a1.57,1.57,0,0,1-1.57,1.57H1.76A1.57,1.57,0,0,1,.19,22.49V1.63A1.57,1.57,0,0,1,1.76.06H22.62a1.57,1.57,0,0,1,1.57,1.57ZM20.88,6.66a7.13,7.13,0,0,1-2,.56,3.58,3.58,0,0,0,1.57-2,7.11,7.11,0,0,1-2.27.87,3.57,3.57,0,0,0-6.08,3.25A10.13,10.13,0,0,1,4.71,5.64a3.57,3.57,0,0,0,1.1,4.76A3.53,3.53,0,0,1,4.2,10v0a3.57,3.57,0,0,0,2.86,3.5,3.56,3.56,0,0,1-.94.13,3.52,3.52,0,0,1-.67-.06A3.57,3.57,0,0,0,8.78,16a7.16,7.16,0,0,1-4.43,1.53,7.29,7.29,0,0,1-.85,0A10.15,10.15,0,0,0,19.12,9q0-.23,0-.46A7.25,7.25,0,0,0,20.88,6.66Z" transform="translate(-0.19 -0.06)" fill="#4b2e83"/></svg>