<svg id="ae651dac-2453-4e5c-a863-7679d93a8091" data-name="Layer 1" xmlns="http://www.w3.org/2000/svg" viewBox="0 0 333.12 44.27"><defs><style>.fe4a3caf-81e3-41a4-96bc-e25ccba4a732{fill:#fff;}</style></defs><title>uw-medicine</title><path class="fe4a3caf-81e3-41a4-96bc-e25ccba4a732" d="M191.13,28.36v.72c-1.51.24-3.45.73-3.45,3.5,0,.11,0,1.38.18,3.2l2.84,28.36c.43,3.8.73,5.13,4,6.15V71H182.25v-.72c1.81-.54,3.38-1.26,3.38-3.92,0-.54,0-.54-.18-3l-2.71-28.73L167.6,71H167l-15.57-35.9-2.59,28.66a18.82,18.82,0,0,0-.18,2.54c0,2.71,1.51,3.38,3.38,4V71H141.76v-.72c3-.72,3.44-1.62,3.86-6L148.28,36c.18-1.81.24-2.47.24-3,0-2.9-1.21-3.38-3.32-3.87v-.72h8.88l14.11,32.7,14.07-32.7Z" transform="translate(-33.79 -27.82)"/><path class="fe4a3caf-81e3-41a4-96bc-e25ccba4a732" d="M221.85,64.19a16.37,16.37,0,0,1-2,3c-3.14,3.75-6.33,4.83-10,4.83-8.82,0-13.22-6.93-13.22-14.36s4.71-15.09,13.77-15.09c6.75,0,11.95,4.41,12.13,13.16H201.26a14.11,14.11,0,0,0,.12,3.08,10.05,10.05,0,0,0,10,9.35c4.71,0,7.61-2.78,9.48-4.64Zm-4.41-10.92c-.25-5.85-3.87-8.27-7.31-8.27-3.92,0-7.42,2.78-8.63,8.27Z" transform="translate(-33.79 -27.82)"/><path class="fe4a3caf-81e3-41a4-96bc-e25ccba4a732" d="M252.57,27.87V62c0,4.17.71,5,2.82,5.74l.31.54-4.35,3.8a8.22,8.22,0,0,1-3-4.33c-3.26,2.83-5.68,4.33-9.72,4.33-8,0-12.56-6.16-12.56-13.69,0-8.33,5.13-15.81,14-15.81a14.89,14.89,0,0,1,7.78,2V36.56c-.06-1.82-.12-3.93-3.38-3.62l-.24-.54ZM247.91,54a12,12,0,0,0-.67-4.41,7.21,7.21,0,0,0-7-4.46c-6.11,0-9.49,5.24-9.49,12.07,0,7.24,4.42,11.35,9.3,11.35a9,9,0,0,0,3.5-.72,10.52,10.52,0,0,0,4.4-3.38Z" transform="translate(-33.79 -27.82)"/><path class="fe4a3caf-81e3-41a4-96bc-e25ccba4a732" d="M260.82,50.56c0-2-.06-3.26-3-3.26l-.31-.54,8.09-4.64V64.8c0,3.43.07,4.58,3.38,5.48V71h-11.1v-.72c3-.9,3-2.17,3-5.61Zm5.38-19.06a3,3,0,0,1-3.14,3.13,2.87,2.87,0,0,1-3-2.89,3,3,0,0,1,3.19-3.21,2.89,2.89,0,0,1,2.91,3" transform="translate(-33.79 -27.82)"/><path class="fe4a3caf-81e3-41a4-96bc-e25ccba4a732" d="M294.85,64.19c-3.43,6.76-7.9,7.9-11.34,7.9a10.7,10.7,0,0,1-8.93-4.34,15.55,15.55,0,0,1-3.07-9.66,16.87,16.87,0,0,1,3.55-10.8,11.75,11.75,0,0,1,9.78-4.71,13.55,13.55,0,0,1,8.81,3.08l-1,5.55H292c-1-2.36-2.53-6-7.54-6-6.34,0-8.45,6.64-8.45,11.28,0,7.12,4.47,11.77,9.42,11.77,3.74,0,6.75-2.66,8.62-4.65Z" transform="translate(-33.79 -27.82)"/><path class="fe4a3caf-81e3-41a4-96bc-e25ccba4a732" d="M299.8,50.56c0-2-.06-3.26-3-3.26l-.31-.54,8.09-4.64V64.8c0,3.43.06,4.58,3.38,5.48V71H296.85v-.72c3-.9,3-2.17,3-5.61Zm5.38-19.06A3,3,0,0,1,302,34.63a2.87,2.87,0,0,1-3-2.89,3,3,0,0,1,3.19-3.21,2.88,2.88,0,0,1,2.9,3" transform="translate(-33.79 -27.82)"/><path class="fe4a3caf-81e3-41a4-96bc-e25ccba4a732" d="M318.09,42.17v4.7a11.79,11.79,0,0,1,9.29-4.29A9.34,9.34,0,0,1,335.05,46c1.68,2.29,1.75,4.47,1.75,7.78V64.56c0,3.68.18,5.13,3.38,5.73V71H329v-.72a3.44,3.44,0,0,0,2.71-1.74c.31-.66.43-1,.43-3.86V53.21c0-1.63-.06-3.92-2-5.6a7.21,7.21,0,0,0-4.71-1.52,7.65,7.65,0,0,0-5.13,1.69c-2.11,1.76-2.17,3.68-2.17,5.73V64.67c0,3.92.37,4.83,3.32,5.61V71H310.19v-.72c3.13-.54,3.13-2.65,3.13-5.67V52.73c0-3.8-.06-5.25-3.19-5.31l-.31-.54Z" transform="translate(-33.79 -27.82)"/><path class="fe4a3caf-81e3-41a4-96bc-e25ccba4a732" d="M366.18,64.19a16.32,16.32,0,0,1-2,3c-3.13,3.75-6.33,4.83-10,4.83C345.43,72,341,65.1,341,57.68s4.7-15.09,13.76-15.09c6.75,0,11.95,4.41,12.12,13.16h-21.3a14.55,14.55,0,0,0,.12,3.08,10,10,0,0,0,10,9.35c4.7,0,7.59-2.78,9.47-4.64Zm-4.4-10.92c-.25-5.85-3.86-8.27-7.3-8.27-3.93,0-7.43,2.78-8.63,8.27Z" transform="translate(-33.79 -27.82)"/><path class="fe4a3caf-81e3-41a4-96bc-e25ccba4a732" d="M133.61,28.2c-.45-.45-1.69-.32-3.13-.17l-2,.15L126.39,28c-1.76-.18-3.57-.38-4.24.17l-.28.5v.06c0,.64.55.84,1.13,1.05a2.59,2.59,0,0,1,2,2.12,6.78,6.78,0,0,1,.15,1.11.67.67,0,0,1,0,.09c0,2.81-4.72,15.49-9.41,27-2-5-8.44-27.14-8.5-27.37a15.06,15.06,0,0,1-.21-1.77V31c.08-1.38.66-1.44,1.22-1.51.41,0,.9-.11.95-.78l-.18-.41c-.53-.51-2.22-.39-4.74-.14l-2.24.18-2.39-.19c-1.86-.21-3.62-.4-4.31.17l-.31.58v0c0,.64.53.76,1.09.89a4.25,4.25,0,0,1,3,2,40.57,40.57,0,0,1,1.75,3.74L103,40.56c-.07.14-7.36,18.6-7.71,19.47-1.09-2.76-6.88-18.61-10-27.26L85.14,32a2.21,2.21,0,0,1,0-.3c0-.3,0-.69,0-.69.08-1.38.69-1.46,1.27-1.55.4-.05.92-.13,1-.79l-.18-.41c-.53-.51-2.22-.39-4.74-.14l-2.24.18-2.38-.2A11.94,11.94,0,0,0,74.38,28l-.8.11-2,.2-2.29-.18c-1.54-.18-2.88-.33-3.41.14l-.22.5c0,.86.93,1,1.61,1.1l.42.05c1.83.2,4.11.45,4.11,12.16V56.33c0,7.48-4.65,11.85-12.78,12-4.39.09-7.62-.94-9.87-3.14-3.54-3.48-4-9.2-4-14.89V32.64c0-2.24,1.15-2.63,2.07-2.94.54-.18,1.11-.37,1-1l-.35-.55c-.64-.43-2-.16-3.52.14a18.14,18.14,0,0,1-2.85.4,20.66,20.66,0,0,1-2.88-.34c-2-.3-3.86-.6-4.54,0a.76.76,0,0,0-.27.61c0,.77.68.94,1.4,1.12,1.42.35,3.37.84,3.37,5.55V56.18a13.11,13.11,0,0,0,4.07,9.61c3.52,3.4,9.05,5.22,15.2,5,13.61-.48,16.46-9,16.46-16.1V32.58c0-1.78.51-2.36,1.08-2.61,1,.31,2.23,1.07,3.21,3.62.09.21,8.38,20.9,10.29,26.4l3.69,10.67a.79.79,0,0,0,.56.47c.37,0,.62-.38.65-.43,1.46-5,9-24.05,10.36-27.3,1.2,3.22,8.52,23,9.46,27.17a.66.66,0,0,0,.62.59.69.69,0,0,0,.73-.51s1.18-3.51,1.18-3.51l2.05-5.72s1.89-4.91,1.89-5.05c0,.06,8.39-22.46,8.39-22.46,1.75-4.2,3.34-4.28,4.3-4.33.5,0,1,0,1.06-.85a.63.63,0,0,0-.19-.52" transform="translate(-33.79 -27.82)"/></svg>