<svg 
 xmlns="http://www.w3.org/2000/svg"
 xmlns:xlink="http://www.w3.org/1999/xlink"
 width="32px" height="32px">
<path fill-rule="evenodd"  fill="rgb(255, 255, 255)"
 d="M29.908,32.000 L2.093,32.000 C0.941,32.000 -0.000,31.058 -0.000,29.907 L-0.000,2.093 C-0.000,0.942 0.941,-0.000 2.093,-0.000 L29.908,-0.000 C31.058,-0.000 32.000,0.942 32.000,2.093 L32.000,29.907 C32.000,31.058 31.058,32.000 29.908,32.000 ZM16.000,8.121 C5.308,8.121 4.810,8.472 4.810,16.000 C4.810,23.528 5.308,23.879 16.000,23.879 C26.692,23.879 27.190,23.528 27.190,16.000 C27.190,8.472 26.692,8.121 16.000,8.121 ZM13.784,12.280 L19.754,15.727 L13.784,19.174 L13.784,12.280 Z"/>
</svg>