<?xml version="1.0" encoding="UTF-8"?>
<svg width="24px" height="24px" viewBox="0 0 24 24" version="1.1" xmlns="http://www.w3.org/2000/svg" xmlns:xlink="http://www.w3.org/1999/xlink">
    <!-- Generator: Sketch 48.2 (47327) - http://www.bohemiancoding.com/sketch -->
    <title>icon_media</title>
    <desc>Created with Sketch.</desc>
    <defs></defs>
    <g id="Icons" stroke="none" stroke-width="1" fill="none" fill-rule="evenodd">
        <g id="icon_media">
            <rect id="Rectangle" fill="#FFFFFF" x="0" y="0" width="24" height="24"></rect>
            <g id="Group-19" transform="translate(3.000000, 6.000000)" fill="#000000">
                <path d="M17.05518,9.38431765 C17.05518,10.2896118 16.30386,11.0262 15.3801,11.0262 L2.4885,11.0262 C1.56474,11.0262 0.81342,10.2896118 0.81342,9.38431765 L0.81342,2.54008235 C0.81342,1.63443529 1.56474,0.897847059 2.4885,0.897847059 L15.3801,0.897847059 C16.30386,0.897847059 17.05518,1.63443529 17.05518,2.54008235 L17.05518,9.38431765 Z M15.3801,0.116435294 L2.4885,0.116435294 C1.12518,0.116435294 0.01602,1.20349412 0.01602,2.54008235 L0.01602,9.38431765 C0.01602,10.7205529 1.12518,11.8079647 2.4885,11.8079647 L15.3801,11.8079647 C16.74342,11.8079647 17.85258,10.7205529 17.85258,9.38431765 L17.85258,2.54008235 C17.85258,1.20349412 16.74342,0.116435294 15.3801,0.116435294 Z" id="Fill-119"></path>
                <polygon id="Fill-121" points="8.131464 7.34110588 10.725624 5.96216471 8.131464 4.58357647"></polygon>
                <path d="M8.934264,8.33752941 C7.598664,8.33752941 6.511824,7.27164706 6.511824,5.96223529 C6.511824,4.65282353 7.598664,3.58694118 8.934264,3.58694118 C10.269864,3.58694118 11.356704,4.65282353 11.356704,5.96223529 C11.356704,7.27164706 10.269864,8.33752941 8.934264,8.33752941 M8.934264,2.80552941 C7.158744,2.80552941 5.714784,4.22152941 5.714784,5.96223529 C5.714784,7.70258824 7.158744,9.11929412 8.934264,9.11929412 C10.709784,9.11929412 12.154104,7.70258824 12.154104,5.96223529 C12.154104,4.22152941 10.709784,2.80552941 8.934264,2.80552941" id="Fill-123"></path>
            </g>
        </g>
    </g>
</svg>