<?xml version="1.0" encoding="UTF-8"?>
<svg width="18px" height="18px" viewBox="0 0 18 18" version="1.1" xmlns="http://www.w3.org/2000/svg" xmlns:xlink="http://www.w3.org/1999/xlink">
    <!-- Generator: Sketch 48.2 (47327) - http://www.bohemiancoding.com/sketch -->
    <title>icon_parking</title>
    <desc>Created with Sketch.</desc>
    <defs></defs>
    <g id="Icons" stroke="none" stroke-width="1" fill="none" fill-rule="evenodd">
        <g id="icon_parking" transform="translate(-3.000000, -3.000000)">
            <rect id="Rectangle" x="0" y="0" width="24" height="24"></rect>
            <path d="M4.49993647,19.500413 L19.4996824,19.500413 L19.4996824,4.49996823 L4.49993647,4.49996823 L4.49993647,19.500413 Z M19.4996824,3 L4.49993647,3 C3.67506671,3 3,3.675081 3,4.49996823 L3,19.500413 C3,20.3245378 3.67506671,21 4.49993647,21 L19.4996824,21 C20.3245521,21 21,20.3245378 21,19.500413 L21,4.49996823 C21,3.675081 20.3245521,3 19.4996824,3 Z" id="Fill-252" fill="#272727"></path>
            <path d="M12.1999289,12.2857661 L9.40021345,12.2857661 L9.40021345,9.42846771 L12.1999289,9.42846771 C12.9733191,9.42846771 13.6001423,10.0681018 13.6001423,10.8569354 C13.6001423,11.6461321 12.9733191,12.2857661 12.1999289,12.2857661 M12.1999289,8 L8,8 L8,18 L9.40021345,18 L9.40021345,13.7142339 L12.1999289,13.7142339 C13.7459979,13.7142339 15,12.4349657 15,10.8569354 C15,9.27926816 13.7459979,8 12.1999289,8" id="Fill-254" fill="#272727"></path>
        </g>
    </g>
</svg>