<?xml version="1.0" encoding="utf-8"?>
<!-- Generator: Adobe Illustrator 21.1.0, SVG Export Plug-In . SVG Version: 6.00 Build 0)  -->
<svg version="1.1" id="Layer_1" xmlns="http://www.w3.org/2000/svg" xmlns:xlink="http://www.w3.org/1999/xlink" x="0px" y="0px"
	 width="286.7px" height="74.2px" viewBox="0 0 286.7 74.2" style="enable-background:new 0 0 286.7 74.2;" xml:space="preserve">
<title>Artboard 1</title>
<path d="M228.4,71.4l-0.6-8.2c0.5-0.2,0.6,0.1,0.6,0.5c0.1,2,0.2,4.1,0.4,6.1c0,0.2,0.1,0.4,0.2,0.6c0.3-0.5,0.5-1.1,0.8-1.6
	c0.8-1.7,1.6-3.3,2.4-5c0.2-0.4,0.4-0.6,0.9-0.4l0.5,7h0.1l1.5-3.4c0.5-1.2,1-2.3,1.6-3.5c0.1-0.3,0.3-0.5,0.6-0.4
	c0.1,0,0.1,0,0.2,0.1l-1.3,2.8c-0.8,1.7-1.6,3.4-2.4,5.1c-0.2,0.4-0.3,0.5-0.8,0.4l-0.6-7.2c-0.1,0.2-0.2,0.3-0.3,0.5
	c-1,2.1-2,4.2-3,6.3C229.1,71.4,228.9,71.6,228.4,71.4z"/>
<path d="M241.3,63.2c0.5-0.2,0.7,0,0.8,0.4c0.5,1.5,1,3,1.6,4.5l1.6-2.1c0.7-0.8,1.3-1.7,2-2.6c0.2-0.2,0.4-0.3,0.7-0.4l0.1,0.2
	l-1.2,8.3h-0.6l1.1-7.2l-0.1-0.1c-0.1,0.1-0.2,0.2-0.3,0.4c-1,1.3-2,2.6-3,3.9c-0.1,0.1-0.3,0.3-0.5,0.4c-0.1-0.2-0.2-0.3-0.3-0.5
	c-0.5-1.4-1-2.7-1.6-4.1l-1.7,7.2h-0.6L241.3,63.2z"/>
<path d="M220.9,63.1c-0.3,1.6-0.6,3.1-0.9,4.7c-0.1,0.6-0.1,1.2-0.1,1.8c0,0.7,0.6,1.3,1.3,1.5c1.3,0.5,2.8-0.2,3.3-1.5
	c0-0.1,0.1-0.2,0.1-0.3c0.4-1.5,0.7-3,1-4.5c0.1-0.4,0.2-0.7,0.2-1.1c0-0.4,0.2-0.5,0.7-0.4c-0.2,0.9-0.4,1.9-0.5,2.8
	c-0.2,1.2-0.4,2.4-0.8,3.5c-0.5,1.7-2.3,2.6-4,2.1c-0.1,0-0.2-0.1-0.2-0.1c-1.3-0.4-1.9-1.6-1.6-3.2s0.6-3.3,0.9-4.9
	C220.3,63,220.6,63.2,220.9,63.1z"/>
<path d="M172.6,65.8l0.5,4.8h0.1l0.7-1.4c0.5-1,1.1-2,1.6-3.1c0.1-0.3,0.3-0.4,0.6-0.3c0,0,0.1,0,0.1,0.1l0.6,4.9
	c0.1-0.2,0.2-0.3,0.3-0.4c0.7-1.4,1.4-2.8,2-4.2c0.2-0.3,0.4-0.4,0.7-0.3l-1.5,3.1c-0.4,0.7-0.7,1.4-1.1,2.2
	c-0.2,0.3-0.4,0.5-0.8,0.3l-0.5-4.8c-0.1,0.2-0.2,0.3-0.3,0.4c-0.7,1.4-1.4,2.7-2.1,4.1c-0.1,0.3-0.3,0.5-0.7,0.3l-0.7-5.7H172.6z"
	/>
<path d="M206.8,63.2l-0.6,3.4c0.1-0.1,0.2-0.2,0.4-0.3c0.5-0.3,1-0.5,1.5-0.7c1-0.3,2,0.4,2.3,1.4c0,0.2,0.1,0.3,0.1,0.5
	c0.2,3.1-2.3,4.9-5.4,3.9c-0.1-0.1-0.2-0.3-0.2-0.4c0.5-2.5,1-4.9,1.4-7.4C206.3,63.2,206.4,63,206.8,63.2z M205.3,70.8
	c1.6,0.8,3.4,0.1,4.2-1.4c0.4-0.8,0.4-1.6,0.1-2.5c-0.2-0.5-0.7-0.9-1.3-0.9c-1.1,0-2.1,0.7-2.4,1.7
	C205.8,68.8,205.6,69.8,205.3,70.8L205.3,70.8z"/>
<path d="M160.2,65.8l-0.1,0.7c0.6-0.3,1.1-0.6,1.8-0.8c1-0.3,2.1,0.2,2.4,1.2c0.1,0.2,0.1,0.4,0.1,0.7c0.3,1.8-0.8,3.5-2.6,4
	c-0.8,0.3-1.8,0.1-2.5-0.4c-0.2,0.8-0.3,1.6-0.5,2.4c-0.1,0.3-0.2,0.5-0.6,0.4c0.2-1.2,0.4-2.4,0.7-3.6c0.3-1.4,0.6-2.9,0.8-4.3
	C159.7,65.7,159.8,65.7,160.2,65.8z M163.7,67.8c0.1-0.6-0.2-1.3-0.8-1.6c-0.7-0.4-1.5-0.3-2,0.2c-0.4,0.4-0.8,0.8-1,1.3
	c-0.2,0.7-0.4,1.3-0.5,2c-0.2,0.7,0,1,0.7,1.2c0.3,0.1,0.7,0.1,1,0.1C162.7,71,163.7,69.7,163.7,67.8L163.7,67.8z"/>
<path d="M202.5,63.2l-0.8,4.3c-0.2,1.2-0.5,2.4-0.7,3.7c-0.1,0.4-0.2,0.4-0.5,0.3l0.1-0.8c-0.5,0.6-1.2,0.9-2,1
	c-1,0.2-2-0.5-2.2-1.5c0-0.1,0-0.1,0-0.2c-0.4-2,0.9-3.9,2.9-4.3c0.1,0,0.1,0,0.2,0c0.7,0,1.3,0.1,2,0.3c0.1-0.7,0.3-1.5,0.5-2.4
	C202,63.2,202.1,63,202.5,63.2z M196.9,69.3c-0.1,0.9,0.5,1.7,1.4,1.9c0.4,0.1,0.8,0,1.1-0.2c0.8-0.3,1.3-1,1.5-1.8
	c0.1-0.7,0.3-1.4,0.4-2.1c0-0.2-0.1-0.4-0.2-0.5c-0.6-0.4-1.3-0.5-1.9-0.3C197.7,66.6,196.8,67.9,196.9,69.3z"/>
<path d="M260.3,66.1c0.2-0.9,0.4-1.8,0.5-2.6c0.1-0.4,0.2-0.4,0.6-0.3l-0.6,3.2c-0.3,1.6-0.6,3.2-0.9,4.8c-0.1,0.4-0.2,0.4-0.5,0.3
	l0.1-0.8c-0.6,0.6-1.3,1-2.1,1c-1,0.1-1.9-0.6-2-1.6c-0.5-2,0.8-4,2.7-4.4c0.1,0,0.2,0,0.3,0C259,65.5,259.7,65.7,260.3,66.1z
	 M258.8,66.1c-1.7,0.1-3,1.5-3,3.2c0,0.4,0.1,0.8,0.3,1.1c0.2,0.3,0.5,0.5,0.9,0.6c1.3,0.2,2.6-0.6,2.8-1.9c0,0,0-0.1,0-0.1
	c0.1-0.6,0.2-1.1,0.3-1.7c0.2-0.8,0.1-1-0.8-1.3C259.1,66.1,258.9,66.1,258.8,66.1L258.8,66.1z"/>
<path d="M184.3,70.3l0.2,0.2c0,0.1,0.1,0.1,0.1,0.2c0,0-0.1,0.1-0.1,0.1c-0.8,0.7-1.8,1-2.9,0.8c-1-0.2-1.7-1-1.8-2
	c-0.3-1.9,0.9-3.7,2.8-4c0,0,0,0,0,0c1.8-0.2,2.8,1,2.5,2.9c0,0.1-0.3,0.2-0.4,0.2c-1.2,0-2.4,0-3.7,0h-0.6
	c-0.2,0.8,0.1,1.7,0.9,2.1C182.3,71.3,183.5,71.1,184.3,70.3z M180.5,68.2h4.1c0.2-1.3-0.4-2.1-1.6-2.1
	C181.8,66.1,180.7,67,180.5,68.2L180.5,68.2z"/>
<path d="M194.4,70.3l0.3,0.3c0,0.1,0,0.1,0,0.1c-0.8,0.8-1.9,1.1-2.9,0.9c-1-0.2-1.7-1-1.8-2c-0.3-1.9,0.9-3.6,2.8-3.9
	c1.7-0.2,2.9,0.8,2.5,2.9c0,0.1-0.3,0.2-0.4,0.2c-1.2,0-2.5,0-3.7,0h-0.6c-0.2,0.8,0.1,1.7,0.8,2.1
	C192.4,71.4,193.6,71.2,194.4,70.3z M194.7,68.3c0.2-1,0-1.6-0.7-1.9c-1.2-0.5-2.7,0-3.2,1.3c-0.1,0.2-0.1,0.4-0.2,0.6H194.7z"/>
<path d="M279.3,68.8c-0.1,0.9,0.1,1.8,0.9,2.2c1,0.5,2.2,0.2,3-0.6l0.3,0.3c-0.8,0.9-2,1.2-3.2,0.9c-0.9-0.2-1.6-1-1.7-2
	c-0.3-1.9,1-3.7,2.9-3.9c0,0,0,0,0,0c1.9-0.2,2.7,1.2,2.4,2.9c0,0.1-0.3,0.2-0.5,0.2c-1.2,0-2.4,0-3.6,0L279.3,68.8z M283.6,68.2
	c0.2-1.3-0.3-2-1.3-2.1c-1.3-0.1-2.5,0.8-2.8,2.1H283.6z"/>
<path d="M249.4,68.8c-0.1,0.9,0.1,1.7,0.9,2.1c1,0.5,2.2,0.3,3-0.6l0.3,0.3c0,0.1-0.1,0.1-0.1,0.2c-0.8,0.7-1.8,1-2.9,0.8
	c-1-0.2-1.7-1-1.8-2c-0.3-1.9,1-3.7,2.8-4c0,0,0,0,0.1,0c1.9-0.2,2.7,1.1,2.4,2.9c0,0.1-0.3,0.2-0.5,0.2c-1.2,0-2.4,0-3.6,0
	L249.4,68.8z M249.5,68.2h4.1c0.2-1.2-0.3-2-1.4-2.1C250.9,66,249.7,66.9,249.5,68.2z"/>
<path d="M167.7,71.6c-1.2,0.1-2.3-0.8-2.4-2c-0.3-1.9,1.1-3.7,3-4c0.1,0,0.2,0,0.3,0c1.2-0.1,2.3,0.7,2.5,1.9c0.3,1.9-0.9,3.7-2.8,4
	C168,71.6,167.9,71.6,167.7,71.6z M165.8,69c-0.1,1.1,0.8,2.1,1.9,2.1c0.4,0,0.7-0.1,1.1-0.2c1.2-0.6,1.9-1.9,1.7-3.2
	c-0.1-0.9-0.9-1.6-1.8-1.6c-1.6,0-2.8,1.3-2.8,2.8C165.8,68.9,165.8,69,165.8,69z"/>
<path d="M209.9,73.6c0.2,0,0.4-0.1,0.5,0c0.4,0.2,0.9,0.1,1.2-0.3c0.3-0.5,0.7-1.1,0.9-1.6c0.1-0.2,0.1-0.4,0-0.7
	c-0.4-1.7-0.8-3.4-1.2-5.1c0.4-0.2,0.6-0.1,0.7,0.4c0.3,1.5,0.7,3,1.1,4.6l1-1.8c0.6-1,1.1-2,1.7-2.9c0.1-0.2,0.4-0.3,0.5-0.4
	l0.1,0.2c0,0.1-0.1,0.2-0.2,0.4c-1.3,2.2-2.6,4.4-3.9,6.7c-0.2,0.4-0.4,0.7-0.7,1c-0.5,0.4-1.2,0.4-1.6,0
	C210,73.8,210,73.7,209.9,73.6z"/>
<path d="M276.3,71.5c0.2-1.1,0.4-2.2,0.6-3.3c0-0.2,0.1-0.5,0.1-0.7c0-1.1-0.7-1.7-1.8-1.3c-1,0.3-1.8,1.2-2,2.3
	c-0.2,0.9-0.4,1.8-0.5,2.7c-0.1,0.4-0.3,0.4-0.6,0.3l0.6-3.3c0.1-0.7,0.3-1.3,0.4-2c0.1-0.3,0.1-0.3,0.5-0.3l-0.1,1l0.5-0.4
	c0.5-0.5,1.3-0.8,2.1-0.8c0.8,0,1.5,0.6,1.5,1.4c0,0,0,0.1,0,0.1c0,0.6-0.1,1.3-0.2,1.9c-0.1,0.8-0.3,1.7-0.5,2.5L276.3,71.5z"/>
<path d="M269.4,67c-0.3-0.1-0.5,0-0.6-0.2c-0.6-0.8-1.6-1-2.5-0.6c-1.3,0.7-1.9,2.1-1.6,3.5c0.3,1,1.3,1.6,2.4,1.3
	c0.1,0,0.3-0.1,0.4-0.2c0.3-0.2,0.7-0.4,1-0.6l0.3,0.3c0,0.1-0.1,0.1-0.1,0.1c-0.5,0.3-1.1,0.6-1.7,0.8c-2,0.3-3.2-1-2.9-3
	c0.2-1.8,1.8-3.1,3.7-2.9c0,0,0,0,0,0C268.6,65.8,269.1,66.3,269.4,67z"/>
<path d="M186.1,71.4c0.4-1.8,0.7-3.7,1.1-5.5c0-0.1,0.2-0.2,0.4-0.3l0.1,0.1l-0.1,1c0.6-0.9,1.6-1.3,2.6-1l-0.2,0.5
	c-1.4-0.3-2.4,0.8-2.7,2.2c-0.2,0.9-0.4,1.8-0.5,2.7C186.7,71.5,186.5,71.6,186.1,71.4z"/>
<path d="M263.2,65.8c-0.4,1.8-0.7,3.6-1.1,5.4c0,0.1-0.3,0.2-0.5,0.3l-0.1-0.1l0.6-3.3c0.1-0.7,0.3-1.3,0.4-2
	C262.7,65.7,262.7,65.7,263.2,65.8z"/>
<path d="M269.8,71.4l0.7-3.9c0.1-0.5,0.2-1,0.3-1.4s0.2-0.5,0.6-0.3c-0.4,1.8-0.7,3.6-1.1,5.4c0,0.2-0.3,0.2-0.4,0.4L269.8,71.4z"/>
<path d="M286,70.7c-0.1,0.9-0.1,0.9-1,0.8l0.2-0.8H286z"/>
<path d="M271.9,63.7l-0.1,0.7H271l0.1-0.7H271.9z"/>
<path d="M262.8,64.4l0.1-0.7h0.3h0.4l-0.1,0.7H262.8z"/>
<path d="M0,44.9V3.7h7.4v13.1c1.7-0.8,3.2-1.8,4.8-2.1c6.8-1.4,11.5,1.8,12.7,8.6c0.8,4.7,0.8,9.5-0.2,14.1
	C23.1,45.2,14.3,48.1,8.2,43c-0.2-0.2-0.4-0.3-0.8-0.6l-0.2,2.5L0,44.9z M17.2,24.7c-0.7-1.8-2.4-3.5-4.3-3.5
	c-2.3,0-3.8,0.7-4.5,2.6c-1.3,3.9-1.3,8.1-0.1,12c0.6,2,2.2,2.9,4.4,2.8c1.9,0.1,3.7-1.1,4.3-3C18.1,32.1,18.2,28.3,17.2,24.7z"/>
<path d="M57.8,32.2H39c-0.5,2.3,0.6,4.6,2.6,5.8c3.8,1.9,7.3,1.1,10.5-1.8l4.2,4.8c-3.4,3.8-8.2,4.9-13.4,4.2
	c-6.9-0.9-10.7-5-11.4-12c-0.6-3.8-0.1-7.7,1.3-11.3c2.1-5.2,7.5-8.3,13.1-7.5c6.3,0.7,10.4,4.5,11.4,10.6
	C57.6,27.3,57.6,29.7,57.8,32.2z M50.1,26.9c-0.1-4.1-2.7-6.7-6.2-6.3c-2.9,0.2-5.1,2.7-5,5.6c0,0.2,0,0.4,0.1,0.7H50.1z"/>
<path d="M130.1,32.2h-18.8c-0.5,2.3,0.5,4.6,2.6,5.8c3.8,1.9,7.3,1.2,10.5-1.8l4.2,4.8c-2.2,2.5-5.4,4.1-8.8,4.2
	c-2.7,0.1-5.3-0.1-7.9-0.8c-3.9-1-6.3-3.9-7.4-7.7c-1.4-4.4-1.4-9.2,0-13.6c1.7-5.7,7.2-9.5,13.2-8.8c6.4,0.5,10.9,4.3,11.9,10.6
	C130,27.3,130,29.7,130.1,32.2z M122.4,26.9c-0.2-4.1-2.5-6.5-6-6.3s-5.5,2.7-5.2,6.3H122.4z"/>
<path d="M78.1,38.6v6.5c-2.4,0-4.8-0.2-7.1-0.6c-3.4-0.8-5.6-3.9-5.6-7.6c-0.1-4.5,0-8.9-0.1-13.4c0-0.7,0-1.3,0-2.2h-3.1v-5.8h3.1
	V6.7h7.6v8.9h5.3v5.7h-5.3c0,4.1,0,8,0,11.9c0,1,0,2,0.1,3c0.2,1.8,0.9,2.4,2.7,2.5C76.3,38.7,77.1,38.6,78.1,38.6z"/>
<path d="M92.9,15.6h5.2v5.7H93c0,5.1-0.1,10,0,14.9c0,1.8,0.9,2.4,2.7,2.5c0.8,0,1.6,0,2.4,0v6.2c-2,0.1-4,0.1-6,0
	c-4-0.5-6.9-3.9-6.7-7.9c-0.1-4.5,0-9-0.1-13.6c0-0.6,0-1.2,0-2l-3.1-0.2v-5.6l3.1-0.1V6.7h7.6L92.9,15.6z"/>
<path d="M183.9,0l-5.7,17.2c-3.4,10.2-6.8,20.4-10.1,30.6c-0.1,1-1.1,1.8-2.1,1.6c-0.1,0-0.1,0-0.2,0c-1.7-0.1-3.4,0-5.3,0
	c0.1-0.5,0.2-1,0.4-1.5c5.1-15.4,10.2-30.8,15.3-46.3c0.4-1.3,1-1.8,2.4-1.7C180.2,0.1,181.9,0,183.9,0z"/>
<path d="M144.3,14.7l0.1,2.4c6.1-3.8,10.7-3.8,14.6-0.1l-5.9,5.3c-1.1-0.5-2.2-0.9-3.4-1.1c-2.5-0.3-4.7,1.5-5,3.9
	c-0.2,0.8-0.2,1.7-0.2,2.5c0,5.1,0,10.3,0,15.4v1.9h-7.4V14.7H144.3z"/>
<path d="M265.4,17.2l-9,26.9c-2.4,0.3-2.4,0.3-3.1-1.8l-8.8-26.5c-0.1-0.4-0.2-0.8-0.3-1.1c2-0.6,2.3-0.5,2.9,1.4l7.8,24.1
	c0.1,0.3,0.2,0.7,0.5,1.2l4.4-13.2c1.4-4.1,2.8-8.3,4.1-12.4c0.3-0.8,0.5-1.4,1.6-1.4c1.1,0,1.3,0.4,1.6,1.3
	c2.7,8.2,5.5,16.4,8.2,24.5c0.1,0.3,0.2,0.7,0.4,1.2l4.1-12.6c1.4-4.2,2.7-8.5,4.1-12.7c0.6-2,0.7-2,2.9-1.6l-3.2,9.6
	c-2,6-4,12.1-6,18.1c-0.7,2.1-0.7,2.1-3.1,1.8L265.4,17.2z"/>
<path d="M188.3,14.5h2.2v4.4c0.2,0,0.3,0,0.4-0.1c2.8-5,9.2-5.5,13.2-4.1c3.6,1.3,5.5,4.2,6.2,7.8c1,4.6,1,9.3-0.1,13.9
	c-1,4.3-3.4,7.3-7.9,8s-8.6-0.1-11.3-4.5c-0.1-0.1-0.1-0.2-0.4-0.2v19.2h-2.2L188.3,14.5z M208.4,24.8c-0.1-0.7-0.3-1.5-0.5-2.2
	c-1-3.9-3.8-6.3-7.5-6.4c-4.7-0.2-7.6,1.6-9,5.8c-0.4,1.3-0.7,2.6-0.8,3.9c-0.3,3.8-0.4,7.7,0.9,11.4s4.1,5.4,8,5.4s6.9-1.9,8-5.6
	C209.3,30.8,208.8,27.3,208.4,24.8z"/>
<path d="M218.8,44.2h-2.2V14.6h2.2v4.3c1.3-2.2,3.5-3.8,6-4.4c4.5-0.9,8.7-0.5,11.8,3.3c1.2,1.5,1.9,3.3,2.1,5.2
	c0.2,7,0.1,14.1,0.1,21.2h-2.1v-1.4c0-5.6,0-11.2,0-16.9c0-1.3-0.2-2.6-0.5-3.8c-0.5-3.1-3-5.4-6.1-5.8c-2.3-0.5-4.7-0.3-6.8,0.7
	c-3.2,1.5-4.5,4.4-4.5,7.8c-0.1,6,0,12,0,17.9C218.8,43.2,218.8,43.7,218.8,44.2z"/>
</svg>
