<?xml version="1.0" encoding="utf-8"?>
<!-- Generator: Adobe Illustrator 21.1.0, SVG Export Plug-In . SVG Version: 6.00 Build 0)  -->
<svg version="1.1" id="Layer_1" xmlns="http://www.w3.org/2000/svg" xmlns:xlink="http://www.w3.org/1999/xlink" x="0px" y="0px"
	 viewBox="0 0 627 71.2" style="enable-background:new 0 0 627 71.2;" xml:space="preserve">
<style type="text/css">
	.st0{fill:#333E48;}
	.st1{fill:#32006E;}
</style>
<g>
	<path class="st0" d="M364.7,40h-8.9l-2.2,9.8h-10.7l12-42.5L354.8,7h10.8l-0.1,0.3l12,42.5h-10.7L364.7,40z M357.3,34.1h6.1
		l-3.1-10.9L357.3,34.1z"/>
	<path class="st0" d="M382.3,62.8V6h9.6v56.7L382.3,62.8L382.3,62.8z"/>
	<path class="st0" d="M441.2,6.2v56.9h-6.8l-25.7-36v35.6h-9.6V6.2h6.4l26,36.5V6.2H441.2z"/>
	<g>
		<path class="st0" d="M52.2,49.1V6.3h9.6v42.8H52.2z"/>
		<path class="st0" d="M125.3,30.5c0,1.7,0,3.4,0,5.2l0,0c-0.2,5.2-1.9,10.4-5,14.8l0,0c-5.1,7.2-13.5,12-23,12
			C81.7,62.5,69,49.8,69,34.3v-2.1C69,16.6,81.7,3.9,97.2,3.9c10.7,0,20,6,24.8,14.8l-8.3,4.8c-3.1-6-9.3-10-16.5-10
			c-10.3,0-18.6,8.4-18.6,18.6v2.1c0,10.3,8.4,18.6,18.6,18.6c7,0,13.1-3.9,16.3-9.7c0.6-1.1,1-2.1,1.4-3.3H96v-9.6h29.3
			C125.3,30.4,125.3,30.5,125.3,30.5z"/>
		<path class="st0" d="M171.9,5.3V62h-9.6V38.3h-20.2V62h-9.6V5.3h9.6v23.4h20.2V5.3H171.9z"/>
		<path class="st0" d="M213.4,14.3h-12.3v48.2h-9.6V14.3h-12.3V4.7h34.2L213.4,14.3L213.4,14.3z"/>
		<path class="st0" d="M8.7,4.9C15.5,5.3,21.9,5.2,28,6.1c7.8,1.2,13.4,5.7,15.6,13.5c2.3,8.3-0.3,15.1-6.9,20.6
			c-0.5,0.4-1.2,0.7-1.7,1.1c14,16.8,20.7,18.8,34,11.1c1.7,2.4,3.5,4.8,5.2,7.1c-7.7,8-22.3,9.4-31.5,2.4
			c-5.6-4.2-10.6-9.2-15.3-14.3c-2.5-2.7-4.9-3.9-8.9-3c0,5.8,0,11.7,0,17.9c-3.5,0-6.6,0-9.8,0C8.7,43.5,8.7,24.6,8.7,4.9z
			 M18.6,15.2c0,6.6,0,12.7,0,19.3c5.4,0,10.6,0.8,14.3-4.1c2.3-3.1,2.5-6.7,0.6-9.9C30.3,14.9,24.7,15.1,18.6,15.2z"/>
	</g>
	<path class="st0" d="M302.3,5.7c6.8,0.4,13.2,0.3,19.3,1.2c7.8,1.2,13.4,5.7,15.6,13.5c2.3,8.3-0.3,15.1-6.9,20.6
		c-0.5,0.4-1.2,0.7-1.7,1.1c14,16.9,20.7,18.8,33.9,11.1c1.7,2.4,3.5,4.8,5.2,7.1c-7.7,8-22.3,9.4-31.5,2.4
		c-5.6-4.2-10.6-9.2-15.3-14.3c-2.5-2.7-4.9-3.9-8.9-3c0,5.8,0,11.7,0,17.9c-3.5,0-6.6,0-9.8,0C302.3,44.3,302.3,25.4,302.3,5.7z
		 M312.3,16c0,6.6,0,12.7,0,19.3c5.4,0,10.6,0.8,14.3-4.1c2.3-3.1,2.5-6.7,0.6-9.9C323.9,15.6,318.3,15.9,312.3,16z"/>
	<g>
		<path class="st1" d="M468,27c0,2.3-0.5,4.1-1.6,5.5c-1.1,1.4-2.5,2.1-4.2,2.1c-1.9,0-3.4-0.7-4.4-2l-0.1,1.7h-2.4V13h2.6v8
			c1-1.3,2.5-1.9,4.3-1.9s3.3,0.7,4.3,2.1S468.1,24.5,468,27L468,27L468,27z M465.5,26.7c0-1.7-0.3-3.1-1-4.1s-1.6-1.4-2.9-1.4
			c-1.7,0-2.9,0.8-3.6,2.4v6.5c0.8,1.6,2,2.4,3.7,2.4c1.2,0,2.2-0.5,2.9-1.4C465.1,30.1,465.5,28.6,465.5,26.7z"/>
		<path class="st1" d="M476,30.6l3.5-11.3h2.7l-6,17.3c-0.9,2.5-2.4,3.7-4.5,3.7h-0.5l-1-0.2V38l0.7,0.1c0.9,0,1.5-0.2,2-0.5
			c0.5-0.4,0.9-1,1.2-1.9l0.6-1.5l-5.4-14.8h2.8L476,30.6z"/>
		<path class="st1" d="M470,42.6v13.7c0,1.9-0.6,3.5-1.8,4.7c-1.2,1.2-2.8,1.9-4.8,2h-0.7c-2.2,0-4-0.6-5.3-1.8s-2-2.8-2-4.9V42.6
			h2.6v13.7c0,1.5,0.4,2.6,1.2,3.4c0.8,0.8,2,1.2,3.4,1.2c1.5,0,2.7-0.4,3.5-1.2s1.2-1.9,1.2-3.4V42.6H470z"/>
		<path class="st1" d="M478.5,56.4l0.4,2.7l0.6-2.4l4-14.1h2.2l3.9,14.1l0.6,2.4l0.4-2.7l3.1-13.8h2.7l-4.9,20.2h-2.4l-4.2-14.7
			l-0.3-1.5l-0.3,1.5L480,62.8h-2.4l-4.9-20.2h2.7L478.5,56.4z"/>
		<path class="st1" d="M509.8,42.6l6.6,16.5l6.6-16.5h3.5v20.2h-2.7v-7.9l0.3-8.5l-6.6,16.4h-2l-6.6-16.3l0.3,8.4v7.9h-2.7V42.6
			H509.8z"/>
		<path class="st1" d="M537,63.1c-2,0-3.7-0.7-5-2s-1.9-3.1-1.9-5.4v-0.5c0-1.5,0.3-2.8,0.9-4c0.6-1.2,1.4-2.1,2.4-2.7
			c1-0.7,2.1-1,3.3-1c2,0,3.5,0.6,4.6,1.9c1.1,1.3,1.6,3.1,1.6,5.5V56h-10.2c0,1.5,0.5,2.7,1.3,3.6c0.8,0.9,1.9,1.4,3.2,1.4
			c0.9,0,1.7-0.2,2.3-0.6c0.6-0.4,1.2-0.9,1.7-1.5l1.6,1.2C541.4,62.1,539.5,63.1,537,63.1z M536.7,49.6c-1,0-1.9,0.4-2.6,1.1
			c-0.7,0.8-1.1,1.8-1.3,3.2h7.5v-0.2c-0.1-1.3-0.4-2.3-1.1-3C538.6,50,537.8,49.6,536.7,49.6z"/>
		<path class="st1" d="M545.2,55.2c0-2.3,0.5-4.2,1.6-5.6c1.1-1.4,2.5-2.1,4.3-2.1s3.1,0.6,4.2,1.8v-7.8h2.6v21.3h-2.4l-0.1-1.6
			c-1,1.3-2.5,1.9-4.3,1.9c-1.7,0-3.2-0.7-4.3-2.1c-1.1-1.4-1.6-3.3-1.6-5.6V55.2z M547.8,55.4c0,1.7,0.4,3,1.1,4s1.7,1.4,2.9,1.4
			c1.6,0,2.8-0.7,3.6-2.2v-6.9c-0.8-1.4-1.9-2.1-3.5-2.1c-1.3,0-2.2,0.5-2.9,1.5C548.1,52.1,547.8,53.5,547.8,55.4z"/>
		<path class="st1" d="M561.9,43.8c0-0.4,0.1-0.8,0.4-1.1c0.3-0.3,0.6-0.4,1.1-0.4s0.9,0.1,1.1,0.4c0.3,0.3,0.4,0.6,0.4,1.1
			c0,0.4-0.1,0.8-0.4,1c-0.3,0.3-0.6,0.4-1.1,0.4s-0.9-0.1-1.1-0.4C562,44.6,561.9,44.2,561.9,43.8z M564.7,62.8h-2.6v-15h2.6V62.8z
			"/>
		<path class="st1" d="M574.8,61c0.9,0,1.7-0.3,2.4-0.8c0.7-0.6,1.1-1.2,1.1-2.1h2.4c0,0.9-0.3,1.7-0.9,2.5
			c-0.5,0.8-1.3,1.4-2.2,1.9s-1.9,0.7-2.9,0.7c-2,0-3.7-0.7-4.9-2S568,58,568,55.6V55c0-1.5,0.3-2.8,0.8-3.9c0.5-1.1,1.3-2,2.3-2.6
			s2.2-0.9,3.6-0.9c1.7,0,3.1,0.5,4.2,1.5c1.1,1,1.7,2.3,1.8,3.9h-2.4c-0.1-1-0.4-1.8-1.1-2.4c-0.7-0.6-1.5-0.9-2.4-0.9
			c-1.3,0-2.3,0.5-3,1.4s-1.1,2.3-1.1,4.1v0.5c0,1.7,0.4,3.1,1.1,4C572.5,60.5,573.5,61,574.8,61z"/>
		<path class="st1" d="M583.7,43.8c0-0.4,0.1-0.8,0.4-1.1c0.3-0.3,0.6-0.4,1.1-0.4s0.9,0.1,1.1,0.4c0.3,0.3,0.4,0.6,0.4,1.1
			c0,0.4-0.1,0.8-0.4,1c-0.3,0.3-0.6,0.4-1.1,0.4s-0.9-0.1-1.1-0.4C583.8,44.6,583.7,44.2,583.7,43.8z M586.4,62.8h-2.6v-15h2.6
			V62.8z"/>
		<path class="st1" d="M593,47.8l0.1,1.9c1.1-1.4,2.6-2.2,4.5-2.2c3.2,0,4.8,1.8,4.8,5.4v9.9h-2.6v-9.9c0-1.1-0.3-1.9-0.7-2.4
			c-0.5-0.5-1.2-0.8-2.3-0.8c-0.8,0-1.6,0.2-2.2,0.7c-0.6,0.4-1.1,1-1.5,1.7v10.7h-2.6v-15C590.5,47.8,593,47.8,593,47.8z"/>
		<path class="st1" d="M612.4,63.1c-2,0-3.7-0.7-5-2s-1.9-3.1-1.9-5.4v-0.5c0-1.5,0.3-2.8,0.9-4c0.6-1.2,1.4-2.1,2.4-2.7
			c1-0.7,2.1-1,3.3-1c2,0,3.5,0.6,4.6,1.9c1.1,1.3,1.6,3.1,1.6,5.5V56h-10.2c0,1.5,0.5,2.7,1.3,3.6c0.8,0.9,1.9,1.4,3.2,1.4
			c0.9,0,1.7-0.2,2.3-0.6c0.6-0.4,1.2-0.9,1.7-1.5l1.6,1.2C616.8,62.1,615,63.1,612.4,63.1z M612.1,49.6c-1,0-1.9,0.4-2.6,1.1
			c-0.7,0.8-1.1,1.8-1.3,3.2h7.5v-0.2c-0.1-1.3-0.4-2.3-1.1-3C614,50,613.2,49.6,612.1,49.6z"/>
	</g>
	<g>
		<path class="st0" d="M262.1,31.8c0.2,1,0,2.2-0.3,3.2c0,0.3-0.1,0.5-0.1,0.7c-0.1,0.8-0.4,1.7-0.6,2.6c-0.1,0.2-0.1,0.4-0.2,0.7
			c-0.5,2.1-1.2,3.9-2,5.7l-0.2,0.5c-0.5,1.1-0.9,2.1-1.8,3.1c-0.6,0.8-1.4,1.4-2.2,1.8c-2.6,1.4-5.2,0.8-7.2-1.5
			c0-0.1-0.1-0.1-0.1-0.2l-0.1,0.1c-0.1,0.2-0.2,0.4-0.3,0.6c-1.6,2.6-3.2,4.4-5.1,5.7c-0.6,0.4-2,1-2,1c-4.2,1.5-8.4-0.2-10.6-4.4
			c-1-2-1.6-4.3-1.9-6.7c-0.3-3,0-6.3,0.9-9.3c0.8-2.9,2.2-6.9,5.5-9.7c2-1.7,4.2-2.5,6.6-2.5c2.1,0,3.9,0.7,5.1,2.4v0.1
			c0.1,0.1,0.2,0.3,0.3,0.4c0.1-0.2,0.1-0.4,0.1-0.6c0.1-0.2,0.1-0.5,0.1-0.8h0.1c0-0.5,0.4-0.8,0.8-1c0.8-0.4,1.5-0.4,2.2-0.1
			c0.6,0.2,0.9,0.5,0.8,1.2c-0.1,1.9-0.2,3.9-0.3,5.8c-0.2,1.6-0.1,3.2,0,4.8c0,1,0.1,1.9,0.1,2.8c0,1,0,2,0.1,2.9
			c0,0.8,0.2,2,0.6,3.1l0.3,0.7c0.3,0.9,1.2,1.7,2.1,1.4c0.2-0.1,0.4-0.2,0.6-0.4c0.4-0.4,0.8-0.9,1.2-1.5c0.8-1.5,1.5-3.1,2-5
			c0.1-0.2,0.1-0.5,0.2-0.7l0.2-0.6c0.2-0.7,0.5-1.5,0.6-2.1c0.1-0.4,0.2-0.7,0.3-1.1v-0.1c0.1-0.5,0.2-0.9,0.3-1.4l0.1-0.2
			c0.1-0.8,0.3-1.6,0.6-2c0.4-0.6,1.1-0.8,2-0.5C261.5,30.6,261.9,31,262.1,31.8z M237.7,27.9c-1.3,0.7-2.5,1.8-3.3,3.2
			c-2.7,4.5-3.5,11.2-2,16.4c0.6,1.7,1.6,3.2,2.9,3.8c1,0.5,2,0.5,3.2,0.1c0.9-0.3,1.6-0.7,2.3-1.4c1.9-1.8,3.1-3.9,3.8-6.3
			c0.5-1.8,0.8-3.7,0.8-6.2c0.1-1.6,0-3.3-0.6-4.9c-0.6-1.6-1.2-2.8-2.1-3.8c-1.2-1.4-2.7-1.8-4.4-1.2
			C238.1,27.6,237.9,27.7,237.7,27.9z"/>
		<path class="st0" d="M281.7,24.6c0.2,0.9-0.1,2.1-0.3,3v0.1c0,0.1-0.1,0.2-0.1,0.2c-0.1,0.2-0.1,0.4-0.1,0.5
			c-0.1,0.7-0.2,1.3-0.4,2c-0.1,0.2-0.1,0.4-0.1,0.5s0,0.1,0,0.1c-0.1,0.2-0.1,0.4-0.2,0.6c-0.8,2.8-1.6,5-2.7,7.1
			c-0.9,1.7-1.7,3.2-3.4,4.3c-0.8,0.5-1.5,1-2.4,1.3c-1.4,0.5-3,0.7-4.6,0.5c-1.3-0.1-2.2-0.5-3.1-1c-0.4-0.3-0.8-0.6-1-0.9
			c-0.5-0.5-0.5-1.1,0-1.7c0.3-0.4,0.6-0.8,0.9-1.2c0.6-0.6,1.4-0.6,2.1-0.1c0.8,0.6,1.7,0.8,2.4,0.5c0.5-0.2,0.9-0.5,1.1-1.1
			c0.6-1.3,0.5-3.1,0.2-4.5c-0.4-2.4-1.4-5-2.1-6.9c-0.7-1.8-1.3-3.1-1.9-4.5c-0.4-1-0.9-2-1.4-3.4c-0.1-0.2-0.2-0.5-0.3-0.7
			c-0.6,3.3-1,6.6-1.4,9.4c-0.3,1.8-0.6,3.8-1,5.8c-0.1,0.4-0.1,0.7-0.2,1c0,0.2-0.1,0.4-0.1,0.6c-0.1,0.5-0.2,1.1-0.4,1.5
			c-0.3,0.8-0.9,1.4-1.7,1.7c-0.7,0.3-1.6,0.2-2.1-0.3c-0.4-0.3-0.6-0.8-0.4-1.3c0-0.3,0.1-0.7,0.2-1.1c0.2-0.6,0.3-1.2,0.4-1.7
			c0.2-1.3,0.4-2.4,0.6-3.5c0.3-1.9,0.6-3.5,0.9-5.5l0.1-1.3c0.4-2.5,0.7-5.2,1.3-7.7c0-0.3,0.1-0.6,0.1-0.9
			c0.1-0.1,0.1-0.2,0.1-0.4c0.2-0.6,0.5-1,1-1.2c0.1-0.1,0.2-0.1,0.2-0.1c0.3-0.1,0.6-0.2,0.9-0.1c0.2-0.1,0.4-0.1,0.5-0.1
			s0.3,0,0.4-0.1c0.2-0.1,0.3-0.1,0.4-0.1h0.1c0.6-0.2,1.2,0,1.7,0.4c0.1,0,0.1,0,0.1,0c0.6,0.6,1.1,1.2,1.5,2
			c0.5,1.3,1,2.5,1.6,3.6c0.8,1.9,1.6,3.8,2.5,6l0.1,0.3c1.2,3,2.5,6.4,2.7,10c0.1-0.1,0.1-0.2,0.2-0.3l0.2-0.4
			c0.3-0.8,0.6-1.6,0.9-2.5c0.1-0.3,0.2-0.6,0.3-0.9c0-0.2,0.1-0.4,0.1-0.6c0-0.1,0.1-0.2,0.1-0.2c0-0.1,0.1-0.4,0.2-0.6
			c0.2-0.6,0.4-1.4,0.6-2c0.1-0.4,0.2-0.8,0.3-1.2c0.1-0.4,0.2-0.8,0.3-1.1c0-0.1,0.1-0.2,0.1-0.4l0.1-0.3c0.2-0.7,0.3-1.4,0.6-1.9
			c0,0,0.1,0,0-0.1c0.4-0.6,1-0.7,2-0.5C281.1,23.4,281.5,23.9,281.7,24.6z"/>
	</g>
</g>
</svg>
