<?xml version="1.0" encoding="utf-8"?>
<!-- Generator: Adobe Illustrator 21.1.0, SVG Export Plug-In . SVG Version: 6.00 Build 0)  -->
<svg version="1.1" id="Layer_1" xmlns="http://www.w3.org/2000/svg" xmlns:xlink="http://www.w3.org/1999/xlink" x="0px" y="0px"
	 width="50px" height="50px" viewBox="0 0 50 50" style="enable-background:new 0 0 50 50;" xml:space="preserve">
<style type="text/css">
	.st0{fill:url(#SVGID_1_);}
	.st1{fill:#FFFFFF;}
</style>
<linearGradient id="SVGID_1_" gradientUnits="userSpaceOnUse" x1="0" y1="573" x2="50" y2="573" gradientTransform="matrix(1 0 0 1 0 -548)">
	<stop  offset="0" style="stop-color:#37296A"/>
	<stop  offset="1" style="stop-color:#6F3076"/>
</linearGradient>
<circle class="st0" cx="25" cy="25" r="25"/>
<g id="Logo_FIXED">
	<path class="st1" d="M19.94,39.26C32.26,39.26,39,29.05,39,20.2c0-0.29,0-0.58,0-0.87c1.31-0.949,2.441-2.124,3.34-3.47
		c-1.228,0.556-2.532,0.924-3.87,1.09c1.396-0.837,2.44-2.151,2.94-3.7c-1.314,0.781-2.751,1.333-4.25,1.63
		c-2.539-2.692-6.779-2.816-9.471-0.277c-1.722,1.624-2.459,4.037-1.939,6.347c-5.385-0.27-10.402-2.814-13.8-7
		c-1.818,3.072-0.908,7.031,2.07,9c-1.052-0.039-2.081-0.326-3-0.84v0.08c-0.002,3.189,2.245,5.937,5.37,6.57
		c-0.979,0.263-2.005,0.301-3,0.11c0.885,2.697,3.373,4.544,6.21,4.61c-2.373,1.863-5.303,2.874-8.32,2.87
		c-0.531-0.002-1.062-0.036-1.59-0.1c3.065,1.963,6.63,3.004,10.27,3"/>
</g>
</svg>
