<?xml version="1.0" encoding="utf-8"?>
<!-- Generator: Adobe Illustrator 21.1.0, SVG Export Plug-In . SVG Version: 6.00 Build 0)  -->
<svg version="1.1" id="Layer_1" xmlns="http://www.w3.org/2000/svg" xmlns:xlink="http://www.w3.org/1999/xlink" x="0px" y="0px"
	 width="50px" height="50px" viewBox="0 0 50 50" style="enable-background:new 0 0 50 50;" xml:space="preserve">
<style type="text/css">
	.st0{fill:url(#SVGID_1_);}
	.st1{fill:#FFFFFF;}
</style>
<linearGradient id="SVGID_1_" gradientUnits="userSpaceOnUse" x1="0" y1="573" x2="50" y2="573" gradientTransform="matrix(1 0 0 1 0 -548)">
	<stop  offset="0" style="stop-color:#37296A"/>
	<stop  offset="1" style="stop-color:#6F3076"/>
</linearGradient>
<circle class="st0" cx="25" cy="25" r="25"/>
<path class="st1" d="M16.86,38.71h-6.11V19.06h6.11V38.71z M13.81,16.38c-1.955,0-3.54-1.585-3.54-3.54s1.585-3.54,3.54-3.54
	s3.54,1.585,3.54,3.54l0,0c-0.006,1.951-1.589,3.53-3.54,3.53V16.38z M39.73,38.71h-6.1v-9.56c0-2.28,0-5.21-3.17-5.21
	s-3.66,2.48-3.66,5v9.72h-6.1v-19.6h5.85v2.69h0.08c1.196-2.041,3.417-3.259,5.78-3.17c6.18,0,7.32,4.07,7.32,9.36V38.71z"/>
</svg>
