<?xml version="1.0" encoding="utf-8"?>
<!-- Generator: Adobe Illustrator 21.1.0, SVG Export Plug-In . SVG Version: 6.00 Build 0)  -->
<svg version="1.1" id="Layer_1" xmlns="http://www.w3.org/2000/svg" xmlns:xlink="http://www.w3.org/1999/xlink" x="0px" y="0px"
	 width="50px" height="50px" viewBox="0 0 50 50" style="enable-background:new 0 0 50 50;" xml:space="preserve">
<style type="text/css">
	.st0{fill:url(#SVGID_1_);}
	.st1{fill:#FFFFFF;}
</style>
<linearGradient id="SVGID_1_" gradientUnits="userSpaceOnUse" x1="0" y1="-521" x2="50" y2="-521" gradientTransform="matrix(1 0 0 -1 0 -496)">
	<stop  offset="0" style="stop-color:#37296A"/>
	<stop  offset="1" style="stop-color:#6F3076"/>
</linearGradient>
<circle class="st0" cx="25" cy="25" r="25"/>
<path class="st1" d="M25,11.95c4.27,0,4.77,0,6.46,0.09c1.024,0.008,2.039,0.194,3,0.55c1.375,0.538,2.462,1.625,3,3
	c0.356,0.961,0.542,1.976,0.55,3c0.08,1.68,0.09,2.19,0.09,6.46s0,4.77-0.09,6.46c-0.008,1.024-0.194,2.039-0.55,3
	c-0.538,1.375-1.625,2.462-3,3c-0.961,0.356-1.976,0.542-3,0.55c-1.68,0.08-2.19,0.09-6.46,0.09s-4.77,0-6.46-0.09
	c-1.024-0.008-2.039-0.194-3-0.55c-1.375-0.538-2.462-1.625-3-3c-0.356-0.961-0.542-1.976-0.55-3c-0.08-1.68-0.09-2.19-0.09-6.46
	s0-4.77,0.09-6.46c0.008-1.024,0.194-2.039,0.55-3c0.538-1.375,1.625-2.462,3-3c0.961-0.356,1.976-0.542,3-0.55
	C20.22,11.95,20.74,11.95,25,11.95 M25,9.07c-4.34,0-4.88,0-6.59,0.1c-1.326,0.026-2.638,0.276-3.88,0.74
	c-2.145,0.83-3.84,2.525-4.67,4.67c-0.464,1.242-0.714,2.554-0.74,3.88c-0.08,1.7-0.1,2.25-0.1,6.59s0,4.88,0.1,6.59
	c0.026,1.326,0.276,2.638,0.74,3.88c0.83,2.145,2.525,3.84,4.67,4.67c1.242,0.464,2.554,0.714,3.88,0.74c1.7,0.08,2.25,0.1,6.59,0.1
	s4.88,0,6.59-0.1c1.326-0.026,2.638-0.276,3.88-0.74c2.145-0.83,3.84-2.525,4.67-4.67c0.464-1.242,0.714-2.554,0.74-3.88
	c0.08-1.7,0.1-2.25,0.1-6.59s0-4.88-0.1-6.59c-0.026-1.326-0.276-2.638-0.74-3.88c-0.83-2.145-2.525-3.84-4.67-4.67
	c-1.242-0.464-2.554-0.714-3.88-0.74C29.89,9.09,29.34,9.07,25,9.07z"/>
<path class="st1" d="M25,16.8c-4.529,0-8.2,3.671-8.2,8.2s3.671,8.2,8.2,8.2s8.2-3.671,8.2-8.2l0,0C33.2,20.471,29.529,16.8,25,16.8
	z M25,30.33c-2.938,0-5.32-2.382-5.32-5.32s2.382-5.32,5.32-5.32s5.32,2.382,5.32,5.32l0,0C30.32,27.948,27.938,30.33,25,30.33z"/>
<circle class="st1" cx="33.53" cy="16.47" r="1.92"/>
</svg>
