<?xml version="1.0" encoding="utf-8"?>
<!-- Generator: Adobe Illustrator 21.1.0, SVG Export Plug-In . SVG Version: 6.00 Build 0)  -->
<svg version="1.1" id="Layer_1" xmlns="http://www.w3.org/2000/svg" xmlns:xlink="http://www.w3.org/1999/xlink" x="0px" y="0px"
	 width="189.1px" height="25.2px" viewBox="0 0 189.1 25.2" style="enable-background:new 0 0 189.1 25.2;" xml:space="preserve">
<style type="text/css">
	.st0{fill:#FFFFFF;}
</style>
<g>
	<g>
		<path class="st0" d="M89.4,0.3v0.4c-0.9,0.1-2,0.4-2,2c0,0.1,0,0.8,0.1,1.8l1.6,16.1c0.2,2.2,0.4,2.9,2.3,3.5v0.4h-7v-0.4
			c1-0.3,1.9-0.7,1.9-2.2c0-0.3,0-0.3-0.1-1.7L84.7,3.9l-8.6,20.6h-0.4L66.9,4.2l-1.5,16.2c-0.1,0.5-0.1,0.9-0.1,1.4
			c0,1.5,0.9,1.9,1.9,2.3v0.4h-5.8v-0.4c1.7-0.4,1.9-0.9,2.2-3.4l1.5-16c0.1-1,0.1-1.4,0.1-1.7c0-1.6-0.7-1.9-1.9-2.2V0.4h5l8,18.5
			l8-18.5L89.4,0.3L89.4,0.3z"/>
		<path class="st0" d="M106.8,20.6c-0.2,0.4-0.5,0.9-1.1,1.7c-1.8,2.1-3.6,2.7-5.6,2.7c-5,0-7.5-3.9-7.5-8.1s2.7-8.6,7.8-8.6
			c3.8,0,6.8,2.5,6.9,7.5H95.2c0,0.8,0,1.4,0.1,1.7c0.3,3.2,2.8,5.3,5.7,5.3c2.7,0,4.3-1.6,5.4-2.6L106.8,20.6z M104.3,14.4
			c-0.1-3.3-2.2-4.7-4.1-4.7c-2.2,0-4.2,1.6-4.9,4.7H104.3z"/>
		<path class="st0" d="M124.2,0v19.4c0,2.4,0.4,2.8,1.6,3.3L126,23l-2.5,2.2c-0.9-0.8-1.2-1.1-1.7-2.5c-1.8,1.6-3.2,2.5-5.5,2.5
			c-4.5,0-7.1-3.5-7.1-7.8c0-4.7,2.9-9,7.9-9c1.1,0,2.8,0.2,4.4,1.2V5c0-1-0.1-2.2-1.9-2.1l-0.1-0.3L124.2,0z M121.5,14.8
			c0-0.7,0-1.6-0.4-2.5c-0.5-1.4-2-2.5-4-2.5c-3.5,0-5.4,3-5.4,6.8c0,4.1,2.5,6.4,5.3,6.4c0.6,0,1.3-0.1,2-0.4
			c1.4-0.5,2.2-1.5,2.5-1.9L121.5,14.8L121.5,14.8z"/>
		<path class="st0" d="M128.9,12.9c0-1.1,0-1.8-1.7-1.8l-0.2-0.3l4.6-2.6v12.9c0,1.9,0,2.6,1.9,3.1v0.4h-6.3v-0.4
			c1.7-0.5,1.7-1.2,1.7-3.2V12.9z M131.9,2.1c0,1-0.7,1.8-1.8,1.8c-1,0-1.7-0.8-1.7-1.6c0-0.7,0.4-1.8,1.8-1.8
			C131.2,0.4,131.9,1.1,131.9,2.1"/>
		<path class="st0" d="M148.1,20.6c-1.9,3.8-4.5,4.5-6.4,4.5c-1.8,0-3.6-0.6-5.1-2.5c-1.6-2-1.7-4.3-1.7-5.5c0-2.2,0.6-4.4,2-6.1
			c1.7-2.2,3.7-2.7,5.5-2.7c2.6,0,4.1,1.1,5,1.7l-0.5,3.1h-0.4c-0.6-1.3-1.4-3.4-4.3-3.4c-3.6,0-4.8,3.8-4.8,6.4
			c0,4,2.5,6.7,5.3,6.7c2.1,0,3.8-1.5,4.9-2.6L148.1,20.6z"/>
		<path class="st0" d="M151,12.9c0-1.1,0-1.8-1.7-1.8l-0.2-0.3l4.6-2.6v12.9c0,1.9,0,2.6,1.9,3.1v0.4h-6.3v-0.4
			C151,23.7,151,23,151,21V12.9z M154,2.1c0,1-0.7,1.8-1.8,1.8c-1,0-1.7-0.8-1.7-1.6c0-0.7,0.4-1.8,1.8-1.8
			C153.3,0.4,154,1.1,154,2.1"/>
		<path class="st0" d="M161.3,8.1v2.7c1-1.1,2.5-2.4,5.3-2.4c1.7,0,3.4,0.6,4.3,2c1,1.3,1,2.5,1,4.4v6c0,2.1,0.1,2.9,1.9,3.2v0.4
			h-6.3V24c0.4-0.1,1.2-0.2,1.5-1c0.2-0.4,0.2-0.5,0.2-2.2v-6.5c0-0.9,0-2.2-1.2-3.2c-0.7-0.5-1.6-0.9-2.7-0.9c-0.7,0-1.9,0.1-2.9,1
			c-1.2,1-1.2,2.1-1.2,3.2v6.3c0,2.2,0.2,2.7,1.9,3.2v0.4h-6.4v-0.4c1.8-0.3,1.8-1.5,1.8-3.2V14c0-2.2,0-3-1.8-3l-0.2-0.3L161.3,8.1
			z"/>
		<path class="st0" d="M188.6,20.6c-0.2,0.4-0.5,0.9-1.1,1.7c-1.8,2.1-3.6,2.7-5.6,2.7c-5,0-7.5-3.9-7.5-8.1s2.7-8.6,7.8-8.6
			c3.8,0,6.8,2.5,6.9,7.5H177c0,0.8,0,1.4,0.1,1.7c0.3,3.2,2.8,5.3,5.7,5.3c2.7,0,4.3-1.6,5.4-2.6L188.6,20.6z M186.1,14.4
			c-0.1-3.3-2.2-4.7-4.1-4.7c-2.2,0-4.2,1.6-4.9,4.7H186.1z"/>
		<path class="st0" d="M56.8,0.2c-0.3-0.3-1-0.2-1.8-0.1l-1.1,0.1l-1.2-0.1c-1-0.1-2-0.2-2.4,0.1l-0.2,0.3l0,0
			c0,0.4,0.3,0.5,0.6,0.6c0.4,0.2,1,0.4,1.1,1.2c0.1,0.4,0.1,0.6,0.1,0.6l0,0c0,1.6-2.7,8.8-5.3,15.3c-1.1-2.8-4.8-15.4-4.8-15.5
			s-0.1-0.8-0.1-1l0,0c0-0.8,0.4-0.8,0.7-0.9c0.2,0,0.5-0.1,0.5-0.4l-0.1-0.2c-0.3-0.3-1.3-0.2-2.7-0.1l-1.3,0.1l-1.4-0.1
			C36.3,0,35.3-0.1,35,0.2l-0.2,0.3l0,0c0,0.4,0.3,0.4,0.6,0.5c0.5,0.1,1.1,0.2,1.7,1.1c0.2,0.3,0.5,0.9,1,2.1c0,0,1.1,2.6,1.2,2.9
			c0,0.1-4.2,10.5-4.4,11C34.3,16.5,31,7.6,29.2,2.7l-0.1-0.4c0,0,0-0.1,0-0.2c0-0.2,0-0.4,0-0.4c0-0.8,0.4-0.8,0.7-0.9
			c0.2,0,0.5-0.1,0.5-0.4l-0.1-0.2c-0.3-0.3-1.3-0.2-2.7-0.1l-1.3,0.1l-1.3-0.1c-0.8-0.1-1.5-0.2-2-0.1c-0.1,0-0.3,0-0.4,0.1
			l-1.1,0.1l-1.3-0.1c-0.9-0.1-1.6-0.2-1.9,0.1l-0.1,0.3c0,0.5,0.5,0.6,0.9,0.6h0.2c1,0.1,2.3,0.3,2.3,6.9v8.1
			c0,4.2-2.6,6.7-7.2,6.8c-2.5,0.1-4.3-0.5-5.6-1.8c-2-2-2.3-5.2-2.3-8.4v-10c0-1.3,0.7-1.5,1.2-1.7c0.3-0.1,0.6-0.2,0.6-0.6L8,0.1
			C7.6-0.1,6.9,0,6,0.2C5.4,0.3,4.9,0.4,4.4,0.4c-0.4,0-1-0.1-1.6-0.2C1.7,0,0.6-0.1,0.2,0.2C0.1,0.3,0,0.4,0,0.5
			C0,0.9,0.4,1,0.8,1.1c0.8,0.2,1.9,0.5,1.9,3.1v11.7c0,2.1,0.8,4,2.3,5.4c2,1.9,5.1,3,8.6,2.8c7.7-0.3,9.3-5.1,9.3-9.1V2.7
			c0-1,0.3-1.3,0.6-1.5c0.6,0.2,1.3,0.6,1.8,2c0,0.1,4.7,11.8,5.8,15l2.1,6c0,0,0.1,0.2,0.3,0.3c0.2,0,0.4-0.2,0.4-0.2
			c0.8-2.9,5.1-13.6,5.9-15.5c0.7,1.8,4.8,13,5.4,15.4c0,0.1,0.1,0.3,0.4,0.3s0.4-0.2,0.4-0.3l0.7-2l1.2-3.2c0,0,1.1-2.8,1.1-2.9
			l4.8-12.7c1-2.4,1.9-2.4,2.4-2.5c0.3,0,0.6,0,0.6-0.5C56.9,0.4,56.9,0.3,56.8,0.2"/>
	</g>
</g>
</svg>
